<svg width="144" height="25" viewBox="0 0 144 25" fill="none" xmlns="http://www.w3.org/2000/svg">
<path fill-rule="evenodd" clip-rule="evenodd" d="M57.9835 4.10884V0H53.2211V4.10884H57.9835ZM41.8784 20.3997C43.5142 20.3997 44.9716 19.843 46.1143 18.8804L46.5705 19.9242H50.15V0.792115L45.368 0.792114V6.3831C44.3615 5.75734 43.1751 5.40723 41.8784 5.40723C37.5691 5.40723 34.4996 8.52771 34.4996 12.8961C34.4996 17.2644 37.5691 20.3997 41.8784 20.3997ZM7.36375 20.3849C8.99489 20.3849 10.4513 19.8476 11.6013 18.9152L12.0155 19.9093H15.755V5.85311L12.1497 5.85285L11.6548 6.93986C10.4952 5.98222 9.01777 5.42934 7.36375 5.42934C3.06955 5.42934 0 8.52769 0 12.8809C0 17.2493 3.06955 20.3849 7.36375 20.3849ZM8.01014 16.098C6.19854 16.098 4.86694 14.7278 4.86694 12.8922C4.86694 11.0677 6.18762 9.69751 8.01014 9.69751C9.82175 9.69751 11.1533 11.0677 11.1533 12.8922C11.1533 14.7278 9.82175 16.098 8.01014 16.098ZM32.459 13.8898C32.459 17.823 29.6961 20.3849 25.5478 20.3849C21.3992 20.3849 18.6212 17.823 18.6212 13.8898V5.86792H23.4584V13.6793C23.4584 15.163 24.2553 16.0355 25.5478 16.0355C26.8401 16.0355 27.6218 15.1481 27.6218 13.6793V5.86792H32.459V13.8898ZM39.3816 12.8964C39.3816 14.7317 40.7132 16.1129 42.5248 16.1129C44.3364 16.1129 45.668 14.7317 45.668 12.8964C45.668 11.0607 44.3364 9.67957 42.5248 9.67957C40.7132 9.67957 39.3816 11.0607 39.3816 12.8964ZM58.0207 5.86768V19.9239H53.1843V5.86768H58.0207ZM68.1199 20.3849C72.6837 20.3849 75.9936 17.2384 75.9936 12.896C75.9936 8.53888 72.6837 5.40747 68.1199 5.40747C63.5411 5.40747 60.2461 8.53888 60.2461 12.896C60.2461 17.2384 63.5411 20.3849 68.1199 20.3849ZM65.0911 12.8963C65.0911 14.7546 66.3558 16.0355 68.1193 16.0358C69.8828 16.0358 71.1476 14.7548 71.1476 12.8966C71.1476 11.0492 69.8828 9.75708 68.1193 9.75708C66.3558 9.75708 65.0911 11.038 65.0911 12.8963ZM83.0104 25V19.4663C84.0015 20.0655 85.164 20.3997 86.4339 20.3997C90.7281 20.3997 93.7976 17.2753 93.7976 12.8961C93.7976 8.51677 90.7281 5.40723 86.4339 5.40723C84.765 5.40723 83.2788 5.98509 82.1238 6.98464L81.5179 5.86796H78.2283V25H83.0104ZM82.643 12.8957C82.643 14.7423 83.9746 16.1125 85.7862 16.1125C87.5866 16.1125 88.9294 14.7423 88.9294 12.8957C88.9294 11.0492 87.5978 9.67896 85.7862 9.67896C83.9746 9.67896 82.643 11.0492 82.643 12.8957ZM100.854 19.9242V12.4182C100.854 10.6143 101.766 9.57464 103.23 9.57464C104.492 9.57464 105.061 10.4011 105.061 12.0222V19.9242H109.899V11.4597C109.899 7.81631 107.827 5.45227 104.603 5.45227C103.203 5.45227 101.888 5.95933 100.854 6.79281V0.792114H96.0166V19.9242H100.854ZM117.591 0V4.10884H112.828V0H117.591ZM117.628 19.9239V5.86768H112.791V19.9239H117.628ZM125.507 0.792114V19.9242H120.671V0.792114H125.507ZM135.361 20.3851C138.884 20.3851 141.725 18.3808 142.713 15.1729H137.9C137.435 15.9957 136.491 16.491 135.361 16.491C133.833 16.491 132.81 15.6573 132.494 14.045H142.922C142.985 13.6103 143.022 13.1868 143.022 12.7633C143.022 8.63988 139.887 5.40747 135.361 5.40747C130.953 5.40747 127.733 8.5761 127.733 12.8854C127.733 17.1795 130.979 20.3851 135.361 20.3851ZM132.579 11.3639H138.255C137.831 9.95904 136.819 9.20105 135.36 9.20105C133.95 9.20105 132.97 9.96763 132.579 11.3639Z" fill="white"/>
</svg>
