<svg width="24" height="20" viewBox="0 0 24 20" fill="none" xmlns="http://www.w3.org/2000/svg">
<path fill-rule="evenodd" clip-rule="evenodd" d="M8.18305 13.1946H8.18198C7.80577 13.1955 7.50006 13.491 7.50006 13.8542C7.50006 14.2179 7.80684 14.5139 8.18376 14.5139H20.5815C20.9591 14.5139 21.2652 14.8092 21.2652 15.1736C21.2652 15.538 20.9591 15.8333 20.5815 15.8333H8.18376C7.05281 15.8333 6.13267 14.9455 6.13267 13.8542C6.13267 13.0421 6.64241 12.343 7.36902 12.0382L4.90059 1.31944H1.34678C0.969147 1.31944 0.663086 1.02412 0.663086 0.659722C0.663086 0.295329 0.969147 0 1.34678 0H5.44897C5.76945 0 6.04685 0.214753 6.11646 0.516611L6.6052 2.63889H23.3163C23.5308 2.63889 23.7329 2.73613 23.8622 2.9014C23.9912 3.06668 24.0325 3.28074 23.9736 3.47986L21.2388 12.716C21.155 12.9991 20.8866 13.1944 20.5815 13.1944H8.18572L8.18305 13.1946ZM20.0657 11.875L22.4098 3.95837H6.90893L8.73213 11.875H20.0657ZM9.41408 20C8.26536 20 7.33075 19.0654 7.33075 17.9167C7.33075 16.768 8.26536 15.8334 9.41408 15.8334C10.5628 15.8334 11.4974 16.768 11.4974 17.9167C11.4974 19.0654 10.5628 20 9.41408 20ZM10.1085 17.9167C10.1085 17.5339 9.79693 17.2223 9.41408 17.2223C9.03123 17.2223 8.71964 17.5339 8.71964 17.9167C8.71964 18.2996 9.03123 18.6112 9.41408 18.6112C9.79693 18.6112 10.1085 18.2996 10.1085 17.9167ZM17.3323 17.9167C17.3323 19.0654 18.2669 20 19.4156 20C20.5643 20 21.4989 19.0654 21.4989 17.9167C21.4989 16.768 20.5643 15.8334 19.4156 15.8334C18.2669 15.8334 17.3323 16.768 17.3323 17.9167ZM19.4156 17.2223C19.7984 17.2223 20.11 17.5339 20.11 17.9167C20.11 18.2996 19.7984 18.6112 19.4156 18.6112C19.0327 18.6112 18.7211 18.2996 18.7211 17.9167C18.7211 17.5339 19.0327 17.2223 19.4156 17.2223Z" fill="white"/>
</svg>
